<svg xmlns="http://www.w3.org/2000/svg" width="20" height="21" viewBox="0 0 20 21" fill="none">
  <g clip-path="url(#clip0_6145_592)">
    <path d="M10 10.875C13.0773 10.875 15.5714 8.44087 15.5714 5.4375C15.5714 2.43413 13.0773 0 10 0C6.92266 0 4.42857 2.43413 4.42857 5.4375C4.42857 8.44087 6.92266 10.875 10 10.875ZM13.9 12.2344H13.1731C12.2068 12.6677 11.1317 12.9141 10 12.9141C8.8683 12.9141 7.79754 12.6677 6.8269 12.2344H6.1C2.87031 12.2344 0.25 14.7917 0.25 17.9438V19.7109C0.25 20.8367 1.18583 21.75 2.33929 21.75H17.6607C18.8142 21.75 19.75 20.8367 19.75 19.7109V17.9438C19.75 14.7917 17.1297 12.2344 13.9 12.2344Z" fill="white"/>
  </g>
  <defs>
    <clipPath id="clip0_6145_592">
      <rect width="19.5" height="21.75" fill="white" transform="translate(0.25)"/>
    </clipPath>
  </defs>
</svg>