<svg width="48" height="49" viewBox="0 0 48 49" fill="none" xmlns="http://www.w3.org/2000/svg">
<path d="M43.3201 21.2108L41.3601 29.5708C39.6801 36.7908 36.3601 39.7108 30.1201 39.1108C29.1201 39.0308 28.0401 38.8508 26.8801 38.5708L23.5201 37.7708C15.1801 35.7908 12.6001 31.6708 14.5601 23.3108L16.5201 14.9308C16.9201 13.2308 17.4001 11.7508 18.0001 10.5308C20.3401 5.69083 24.3201 4.39083 31.0001 5.97083L34.3401 6.75083C42.7201 8.71083 45.2801 12.8508 43.3201 21.2108Z" stroke="#007D99" stroke-width="3" stroke-linecap="round" stroke-linejoin="round"/>
<path d="M30.12 39.1108C28.88 39.9508 27.32 40.6508 25.42 41.2708L22.26 42.3108C14.32 44.8708 10.1399 42.7308 7.55995 34.7908L4.99995 26.8908C2.43995 18.9508 4.55995 14.7508 12.4999 12.1908L15.6599 11.1508C16.4799 10.8908 17.2599 10.6708 17.9999 10.5308C17.3999 11.7508 16.9199 13.2308 16.5199 14.9308L14.5599 23.3108C12.5999 31.6708 15.18 35.7908 23.52 37.7708L26.8799 38.5708C28.0399 38.8508 29.12 39.0308 30.12 39.1108Z" stroke="#007D99" stroke-width="3" stroke-linecap="round" stroke-linejoin="round"/>
<path d="M25.28 17.3909L34.98 19.8509" stroke="#007D99" stroke-width="3" stroke-linecap="round" stroke-linejoin="round"/>
<path d="M23.3201 25.1309L29.1201 26.6109" stroke="#007D99" stroke-width="3" stroke-linecap="round" stroke-linejoin="round"/>
</svg>
