<svg xmlns="http://www.w3.org/2000/svg" width="48" height="48" viewBox="0 0 48 48" fill="none">
  <circle cx="29" cy="19" r="15" fill="url(#paint0_linear_6576_4844)"/>
  <g filter="url(#filter0_bi_6576_4844)">
    <rect x="8" y="8" width="32" height="32" rx="6" fill="#F1F1F1" fill-opacity="0.1"/>
    <rect x="8" y="8" width="32" height="32" rx="6" fill="url(#paint1_linear_6576_4844)" fill-opacity="0.2"/>
    <rect x="8.2" y="8.2" width="31.6" height="31.6" rx="5.8" stroke="url(#paint2_linear_6576_4844)" stroke-opacity="0.1" stroke-width="0.4"/>
  </g>
  <g filter="url(#filter1_i_6576_4844)">
    <path d="M19.757 16.929C18.9759 16.148 17.7096 16.148 16.9286 16.929C16.1475 17.7101 16.1475 18.9764 16.9286 19.7575L21.1712 24.0001L16.9286 28.2428C16.1475 29.0238 16.1475 30.2901 16.9286 31.0712C17.7096 31.8522 18.9759 31.8522 19.757 31.0712L23.9996 26.8285L28.2423 31.0712C29.0233 31.8522 30.2896 31.8522 31.0707 31.0712C31.8517 30.2901 31.8517 29.0238 31.0707 28.2428L26.8281 24.0001L31.0707 19.7575C31.8517 18.9764 31.8517 17.7101 31.0707 16.929C30.2896 16.148 29.0233 16.148 28.2423 16.929L23.9996 21.1717L19.757 16.929Z" fill="white" fill-opacity="0.16"/>
  </g>
  <defs>
    <filter id="filter0_bi_6576_4844" x="5" y="5" width="38" height="38" filterUnits="userSpaceOnUse" color-interpolation-filters="sRGB">
      <feFlood flood-opacity="0" result="BackgroundImageFix"/>
      <feGaussianBlur in="BackgroundImageFix" stdDeviation="1.5"/>
      <feComposite in2="SourceAlpha" operator="in" result="effect1_backgroundBlur_6576_4844"/>
      <feBlend mode="normal" in="SourceGraphic" in2="effect1_backgroundBlur_6576_4844" result="shape"/>
      <feColorMatrix in="SourceAlpha" type="matrix" values="0 0 0 0 0 0 0 0 0 0 0 0 0 0 0 0 0 0 127 0" result="hardAlpha"/>
      <feOffset dy="0.5"/>
      <feGaussianBlur stdDeviation="1"/>
      <feComposite in2="hardAlpha" operator="arithmetic" k2="-1" k3="1"/>
      <feColorMatrix type="matrix" values="0 0 0 0 1 0 0 0 0 1 0 0 0 0 1 0 0 0 0.4 0"/>
      <feBlend mode="normal" in2="shape" result="effect2_innerShadow_6576_4844"/>
    </filter>
    <filter id="filter1_i_6576_4844" x="16.3428" y="16.3433" width="15.3137" height="15.8137" filterUnits="userSpaceOnUse" color-interpolation-filters="sRGB">
      <feFlood flood-opacity="0" result="BackgroundImageFix"/>
      <feBlend mode="normal" in="SourceGraphic" in2="BackgroundImageFix" result="shape"/>
      <feColorMatrix in="SourceAlpha" type="matrix" values="0 0 0 0 0 0 0 0 0 0 0 0 0 0 0 0 0 0 127 0" result="hardAlpha"/>
      <feOffset dy="0.5"/>
      <feGaussianBlur stdDeviation="0.25"/>
      <feComposite in2="hardAlpha" operator="arithmetic" k2="-1" k3="1"/>
      <feColorMatrix type="matrix" values="0 0 0 0 1 0 0 0 0 1 0 0 0 0 1 0 0 0 0.4 0"/>
      <feBlend mode="normal" in2="shape" result="effect1_innerShadow_6576_4844"/>
    </filter>
    <linearGradient id="paint0_linear_6576_4844" x1="15.25" y1="10" x2="47.9525" y2="14.542" gradientUnits="userSpaceOnUse">
      <stop stop-color="#BBA1FF"/>
      <stop offset="1" stop-color="#68E4FF"/>
    </linearGradient>
    <linearGradient id="paint1_linear_6576_4844" x1="9.33333" y1="14.4" x2="44.216" y2="19.2448" gradientUnits="userSpaceOnUse">
      <stop stop-color="#FE82DB"/>
      <stop offset="1" stop-color="#68E4FF"/>
    </linearGradient>
    <linearGradient id="paint2_linear_6576_4844" x1="9" y1="9.45455" x2="40" y2="9.45455" gradientUnits="userSpaceOnUse">
      <stop stop-color="#FD84DC"/>
      <stop offset="1" stop-color="#7FD6FA"/>
    </linearGradient>
  </defs>
</svg>
