<svg xmlns="http://www.w3.org/2000/svg" width="14" height="14" viewBox="0 0 14 14" fill="none">
  <path d="M12.25 3.48834C10.3075 3.29584 8.35333 3.19667 6.405 3.19667C5.25 3.19667 4.095 3.255 2.94 3.37167L1.75 3.48834" stroke="#007D99" stroke-width="0.875" stroke-linecap="round" stroke-linejoin="round"/>
  <path d="M4.95825 2.89917L5.08659 2.13501C5.17992 1.58084 5.24992 1.16667 6.23575 1.16667H7.76409C8.74992 1.16667 8.82575 1.60417 8.91325 2.14084L9.04159 2.89917" stroke="#007D99" stroke-width="0.875" stroke-linecap="round" stroke-linejoin="round"/>
  <path d="M10.9958 5.33167L10.6167 11.2058C10.5525 12.1217 10.5 12.8333 8.87248 12.8333H5.12748C3.49998 12.8333 3.44748 12.1217 3.38332 11.2058L3.00415 5.33167" stroke="#007D99" stroke-width="0.875" stroke-linecap="round" stroke-linejoin="round"/>
  <path d="M6.02588 9.625H7.96838" stroke="#007D99" stroke-width="0.875" stroke-linecap="round" stroke-linejoin="round"/>
  <path d="M5.54175 7.29167H8.45841" stroke="#007D99" stroke-width="0.875" stroke-linecap="round" stroke-linejoin="round"/>
</svg>
