<svg xmlns="http://www.w3.org/2000/svg" width="16" height="16" viewBox="0 0 16 16" fill="none">
  <path d="M10.6666 8.60004V11.4C10.6666 13.7334 9.73325 14.6667 7.39992 14.6667H4.59992C2.26659 14.6667 1.33325 13.7334 1.33325 11.4V8.60004C1.33325 6.26671 2.26659 5.33337 4.59992 5.33337H7.39992C9.73325 5.33337 10.6666 6.26671 10.6666 8.60004Z" stroke="#A0AEC0" stroke-linecap="round" stroke-linejoin="round"/>
  <path d="M14.6666 4.60004V7.40004C14.6666 9.73337 13.7333 10.6667 11.3999 10.6667H10.6666V8.60004C10.6666 6.26671 9.73325 5.33337 7.39992 5.33337H5.33325V4.60004C5.33325 2.26671 6.26659 1.33337 8.59992 1.33337H11.3999C13.7333 1.33337 14.6666 2.26671 14.6666 4.60004Z" stroke="#A0AEC0" stroke-linecap="round" stroke-linejoin="round"/>
</svg>
