<svg xmlns="http://www.w3.org/2000/svg" width="49" height="48" viewBox="0 0 49 48" fill="none">
  <circle cx="24.3333" cy="36" r="8" fill="url(#paint0_linear_6404_4697)"/>
  <g filter="url(#filter0_bi_6404_4697)">
    <mask id="path-3-inside-1_6404_4697" fill="white">
      <path fill-rule="evenodd" clip-rule="evenodd" d="M24.3331 21.1111C28.506 21.1111 31.8887 17.7284 31.8887 13.5556C31.8887 9.38274 28.506 6 24.3331 6C20.1603 6 16.7776 9.38274 16.7776 13.5556C16.7776 17.7284 20.1603 21.1111 24.3331 21.1111ZM39.4441 34.3333C39.4441 39.0003 31.0491 40 24.333 40C17.617 40 9.22192 39.0003 9.22192 34.3333C9.22192 29.6664 15.9874 23 24.333 23C32.6787 23 39.4441 29.6664 39.4441 34.3333Z"/>
    </mask>
    <path fill-rule="evenodd" clip-rule="evenodd" d="M24.3331 21.1111C28.506 21.1111 31.8887 17.7284 31.8887 13.5556C31.8887 9.38274 28.506 6 24.3331 6C20.1603 6 16.7776 9.38274 16.7776 13.5556C16.7776 17.7284 20.1603 21.1111 24.3331 21.1111ZM39.4441 34.3333C39.4441 39.0003 31.0491 40 24.333 40C17.617 40 9.22192 39.0003 9.22192 34.3333C9.22192 29.6664 15.9874 23 24.333 23C32.6787 23 39.4441 29.6664 39.4441 34.3333Z" fill="#F1F1F1" fill-opacity="0.1"/>
    <path fill-rule="evenodd" clip-rule="evenodd" d="M24.3331 21.1111C28.506 21.1111 31.8887 17.7284 31.8887 13.5556C31.8887 9.38274 28.506 6 24.3331 6C20.1603 6 16.7776 9.38274 16.7776 13.5556C16.7776 17.7284 20.1603 21.1111 24.3331 21.1111ZM39.4441 34.3333C39.4441 39.0003 31.0491 40 24.333 40C17.617 40 9.22192 39.0003 9.22192 34.3333C9.22192 29.6664 15.9874 23 24.333 23C32.6787 23 39.4441 29.6664 39.4441 34.3333Z" fill="url(#paint1_linear_6404_4697)" fill-opacity="0.2"/>
    <path d="M31.4887 13.5556C31.4887 17.5075 28.285 20.7111 24.3331 20.7111V21.5111C28.7269 21.5111 32.2887 17.9493 32.2887 13.5556H31.4887ZM24.3331 6.4C28.285 6.4 31.4887 9.60365 31.4887 13.5556H32.2887C32.2887 9.16182 28.7269 5.6 24.3331 5.6V6.4ZM17.1776 13.5556C17.1776 9.60365 20.3812 6.4 24.3331 6.4V5.6C19.9394 5.6 16.3776 9.16182 16.3776 13.5556H17.1776ZM24.3331 20.7111C20.3812 20.7111 17.1776 17.5075 17.1776 13.5556H16.3776C16.3776 17.9493 19.9394 21.5111 24.3331 21.5111V20.7111ZM24.333 40.4C27.7018 40.4 31.5239 40.1502 34.5162 39.3016C36.0114 38.8776 37.3316 38.2954 38.2849 37.4938C39.2498 36.6825 39.8441 35.6393 39.8441 34.3333H39.0441C39.0441 35.3609 38.5891 36.1927 37.7701 36.8815C36.9394 37.5799 35.7411 38.1227 34.298 38.532C31.4138 39.3499 27.6803 39.6 24.333 39.6V40.4ZM8.82192 34.3333C8.82192 35.6393 9.4163 36.6825 10.3812 37.4938C11.3345 38.2954 12.6547 38.8776 14.1498 39.3016C17.1421 40.1502 20.9643 40.4 24.333 40.4V39.6C20.9857 39.6 17.2523 39.3499 14.3681 38.532C12.925 38.1227 11.7267 37.5799 10.896 36.8815C10.0769 36.1927 9.62192 35.3609 9.62192 34.3333H8.82192ZM24.333 22.6C20.0543 22.6 16.189 24.3078 13.3937 26.6077C10.6154 28.8936 8.82192 31.8291 8.82192 34.3333H9.62192C9.62192 32.1706 11.2112 29.4394 13.902 27.2254C16.5759 25.0254 20.2662 23.4 24.333 23.4V22.6ZM39.8441 34.3333C39.8441 31.8291 38.0507 28.8936 35.2723 26.6077C32.4771 24.3078 28.6118 22.6 24.333 22.6V23.4C28.3999 23.4 32.0902 25.0254 34.7641 27.2254C37.4549 29.4394 39.0441 32.1706 39.0441 34.3333H39.8441Z" fill="url(#paint2_linear_6404_4697)" fill-opacity="0.1" mask="url(#path-3-inside-1_6404_4697)"/>
  </g>
  <defs>
    <filter id="filter0_bi_6404_4697" x="6.22192" y="3" width="36.2222" height="40" filterUnits="userSpaceOnUse" color-interpolation-filters="sRGB">
      <feFlood flood-opacity="0" result="BackgroundImageFix"/>
      <feGaussianBlur in="BackgroundImageFix" stdDeviation="1.5"/>
      <feComposite in2="SourceAlpha" operator="in" result="effect1_backgroundBlur_6404_4697"/>
      <feBlend mode="normal" in="SourceGraphic" in2="effect1_backgroundBlur_6404_4697" result="shape"/>
      <feColorMatrix in="SourceAlpha" type="matrix" values="0 0 0 0 0 0 0 0 0 0 0 0 0 0 0 0 0 0 127 0" result="hardAlpha"/>
      <feOffset dy="0.5"/>
      <feGaussianBlur stdDeviation="1"/>
      <feComposite in2="hardAlpha" operator="arithmetic" k2="-1" k3="1"/>
      <feColorMatrix type="matrix" values="0 0 0 0 1 0 0 0 0 1 0 0 0 0 1 0 0 0 0.4 0"/>
      <feBlend mode="normal" in2="shape" result="effect2_innerShadow_6404_4697"/>
    </filter>
    <linearGradient id="paint0_linear_6404_4697" x1="16.9999" y1="31.2" x2="34.4413" y2="33.6224" gradientUnits="userSpaceOnUse">
      <stop stop-color="#BBA1FF"/>
      <stop offset="1" stop-color="#68E4FF"/>
    </linearGradient>
    <linearGradient id="paint1_linear_6404_4697" x1="10.4812" y1="12.8" x2="43.5573" y2="16.8835" gradientUnits="userSpaceOnUse">
      <stop stop-color="#FE82DB"/>
      <stop offset="1" stop-color="#68E4FF"/>
    </linearGradient>
    <linearGradient id="paint2_linear_6404_4697" x1="10.1664" y1="7.54546" x2="39.4441" y2="7.54546" gradientUnits="userSpaceOnUse">
      <stop stop-color="#FD84DC"/>
      <stop offset="1" stop-color="#7FD6FA"/>
    </linearGradient>
  </defs>
</svg>
