<svg xmlns="http://www.w3.org/2000/svg" width="20" height="20" viewBox="0 0 20 20" fill="none">
  <path d="M6.66636 18.3333H13.333C16.683 18.3333 17.283 16.9917 17.458 15.3583L18.083 8.69167C18.308 6.65833 17.7247 5 14.1664 5H5.83303C2.27469 5 1.69136 6.65833 1.91636 8.69167L2.54136 15.3583C2.71636 16.9917 3.31636 18.3333 6.66636 18.3333Z" stroke="#007088" stroke-width="1.25" stroke-miterlimit="10" stroke-linecap="round" stroke-linejoin="round"/>
  <path d="M6.6665 4.99996V4.33329C6.6665 2.85829 6.6665 1.66663 9.33317 1.66663H10.6665C13.3332 1.66663 13.3332 2.85829 13.3332 4.33329V4.99996" stroke="#007088" stroke-width="1.25" stroke-miterlimit="10" stroke-linecap="round" stroke-linejoin="round"/>
  <path d="M11.6668 10.8333V11.6667C11.6668 11.675 11.6668 11.675 11.6668 11.6833C11.6668 12.5917 11.6585 13.3333 10.0002 13.3333C8.35016 13.3333 8.3335 12.6 8.3335 11.6917V10.8333C8.3335 10 8.3335 10 9.16683 10H10.8335C11.6668 10 11.6668 10 11.6668 10.8333Z" stroke="#007088" stroke-width="1.25" stroke-miterlimit="10" stroke-linecap="round" stroke-linejoin="round"/>
  <path d="M18.0415 9.16663C16.1165 10.5666 13.9165 11.4 11.6665 11.6833" stroke="#007088" stroke-width="1.25" stroke-miterlimit="10" stroke-linecap="round" stroke-linejoin="round"/>
  <path d="M2.18359 9.39172C4.05859 10.6751 6.17526 11.4501 8.33359 11.6917" stroke="#007088" stroke-width="1.25" stroke-miterlimit="10" stroke-linecap="round" stroke-linejoin="round"/>
</svg>
