<svg xmlns="http://www.w3.org/2000/svg" width="18" height="24" viewBox="0 0 18 24" fill="none">
  <path d="M6.17289 7.1084L0.901631 10.1492C0.763949 10.2279 0.649869 10.342 0.56726 10.4836C0.488584 10.6213 0.445312 10.7747 0.445312 10.936V18.8861C0.445312 19.0907 0.500385 19.2913 0.602664 19.4683C0.704942 19.6453 0.854425 19.7948 1.03145 19.8971L7.91949 23.8781C8.05717 23.9568 8.21452 24 8.37581 24C8.53709 24 8.69051 23.9568 8.83213 23.8781L14.1309 20.8176L6.16896 16.2269L6.17289 7.1084Z" fill="url(#paint0_linear_6487_92)"/>
  <path d="M11.6528 16.8916L16.9241 13.8508C17.0618 13.7722 17.1759 13.6581 17.2585 13.5165C17.3371 13.3788 17.3804 13.2214 17.3804 13.0601V5.11391C17.3804 4.90935 17.3253 4.70873 17.2231 4.52778C17.1208 4.35076 16.9713 4.20127 16.7943 4.099L9.90623 0.121947C9.76855 0.0432715 9.6112 0 9.45385 0C9.29256 0 9.13914 0.0432715 8.99753 0.121947L3.69873 3.18243L11.6568 7.76921L11.6528 16.8916Z" fill="url(#paint1_linear_6487_92)"/>
  <defs>
    <linearGradient id="paint0_linear_6487_92" x1="7.40531" y1="3.24004" x2="7.31082" y2="26.9281" gradientUnits="userSpaceOnUse">
      <stop stop-color="#1789A3" stop-opacity="0"/>
      <stop offset="1" stop-color="#1789A3"/>
    </linearGradient>
    <linearGradient id="paint1_linear_6487_92" x1="10.5149" y1="-2.89877" x2="10.5255" y2="20.16" gradientUnits="userSpaceOnUse">
      <stop stop-color="#1789A3"/>
      <stop offset="1" stop-color="#1789A3" stop-opacity="0"/>
    </linearGradient>
  </defs>
</svg>
