<svg xmlns="http://www.w3.org/2000/svg" width="20" height="20" viewBox="0 0 20 20" fill="none">
  <path d="M17.5081 9.34973V13.0914C17.5081 16.8331 16.0164 18.3331 12.2664 18.3331H7.77477C7.29144 18.3331 6.84974 18.3081 6.44141 18.2498" stroke="#007088" stroke-width="1.25" stroke-linecap="round" stroke-linejoin="round"/>
  <path d="M2.5332 12.9331V9.34973" stroke="#007088" stroke-width="1.25" stroke-linecap="round" stroke-linejoin="round"/>
  <path d="M10.0251 9.99996C11.5501 9.99996 12.6751 8.75834 12.5251 7.23334L11.9667 1.66663H8.07507L7.51675 7.23334C7.36675 8.75834 8.50009 9.99996 10.0251 9.99996Z" stroke="#007088" stroke-width="1.25" stroke-linecap="round" stroke-linejoin="round"/>
  <path d="M15.2748 9.99996C16.9581 9.99996 18.1914 8.63327 18.0248 6.95827L17.7914 4.66661C17.4914 2.49994 16.6581 1.66663 14.4748 1.66663H11.9331L12.5164 7.5083C12.6664 8.8833 13.8998 9.99996 15.2748 9.99996Z" stroke="#007088" stroke-width="1.25" stroke-linecap="round" stroke-linejoin="round"/>
  <path d="M4.72499 9.99996C6.09999 9.99996 7.34165 8.8833 7.47498 7.5083L7.65834 5.66667L8.05832 1.66663H5.51667C3.33333 1.66663 2.50002 2.49994 2.20002 4.66661L1.96666 6.95827C1.79999 8.63327 3.04166 9.99996 4.72499 9.99996Z" stroke="#007088" stroke-width="1.25" stroke-linecap="round" stroke-linejoin="round"/>
  <path d="M7.50016 15.8333C7.50016 16.4583 7.32515 17.05 7.01682 17.55C6.85848 17.8167 6.66681 18.0584 6.44181 18.25C6.41681 18.2834 6.39183 18.3083 6.3585 18.3333C5.77517 18.8583 5.0085 19.1667 4.16683 19.1667C3.15016 19.1667 2.24181 18.7083 1.6418 17.9916C1.62514 17.9666 1.60018 17.95 1.58352 17.925C1.48352 17.8083 1.39184 17.6834 1.31684 17.55C1.00851 17.05 0.833496 16.4583 0.833496 15.8333C0.833496 14.7833 1.31683 13.8417 2.0835 13.2333C2.22516 13.1167 2.37514 13.0167 2.53348 12.9333C3.01681 12.6583 3.57516 12.5 4.16683 12.5C5.00016 12.5 5.75014 12.8 6.33348 13.3083C6.43348 13.3833 6.52516 13.475 6.60849 13.5667C7.15849 14.1667 7.50016 14.9583 7.50016 15.8333Z" stroke="#007088" stroke-width="1.25" stroke-miterlimit="10" stroke-linecap="round" stroke-linejoin="round"/>
  <path d="M5.40812 15.8165H2.9248" stroke="#007088" stroke-width="1.25" stroke-miterlimit="10" stroke-linecap="round" stroke-linejoin="round"/>
  <path d="M4.1665 14.5999V17.0915" stroke="#007088" stroke-width="1.25" stroke-miterlimit="10" stroke-linecap="round" stroke-linejoin="round"/>
</svg>
