<svg xmlns="http://www.w3.org/2000/svg" width="48" height="48" viewBox="0 0 48 48" fill="none">
  <circle cx="15.0001" cy="13" r="7" transform="rotate(-45 15.0001 13)" fill="url(#paint0_linear_6404_4696)"/>
  <g filter="url(#filter0_bi_6404_4696)">
    <path d="M35.2 12.3541C35.2 12.6158 35.3037 12.8661 35.482 13.0577C36.8472 14.5241 37.9381 16.2493 38.6729 18.1518C38.9399 18.8429 39.5843 19.3335 40.3252 19.3335C41.2502 19.3335 42 20.0833 42 21.0082V26.4001C42 27.5047 41.1046 28.4001 40 28.4001H39.822C39.3796 28.4001 38.9928 28.692 38.8467 29.1096C38.6868 29.5666 38.5065 30.0141 38.307 30.4509C38.0961 30.9127 38.0374 31.433 38.1747 31.9216L39.0996 35.2121C39.491 36.6047 39.1001 38.1 38.0772 39.1229L38.0284 39.1717C36.4663 40.7338 33.9337 40.7338 32.3716 39.1717L32.1962 38.9963C31.5798 38.3799 30.6396 38.246 29.8319 38.5739C27.9904 39.3216 25.9766 39.7335 23.8667 39.7335C21.7567 39.7335 19.743 39.3216 17.9014 38.5739C17.0937 38.246 16.1535 38.3799 15.5371 38.9963L15.3618 39.1717C13.7997 40.7338 11.267 40.7338 9.70491 39.1717L9.65609 39.1229C8.63325 38.1 8.24233 36.6047 8.63374 35.2121L9.5586 31.9216C9.69596 31.433 9.63723 30.9127 9.42636 30.451C8.51041 28.4454 8 26.2157 8 23.8668C8 15.1039 15.1037 8.00012 23.8667 8.00012C25.0884 8.00012 26.2779 8.1382 27.4203 8.39961C27.6038 8.4416 27.7954 8.43523 27.9742 8.37643L32.5752 6.86326C33.8687 6.43783 35.2 7.40141 35.2 8.76315V12.3541Z" fill="#F1F1F1" fill-opacity="0.1"/>
    <path d="M35.2 12.3541C35.2 12.6158 35.3037 12.8661 35.482 13.0577C36.8472 14.5241 37.9381 16.2493 38.6729 18.1518C38.9399 18.8429 39.5843 19.3335 40.3252 19.3335C41.2502 19.3335 42 20.0833 42 21.0082V26.4001C42 27.5047 41.1046 28.4001 40 28.4001H39.822C39.3796 28.4001 38.9928 28.692 38.8467 29.1096C38.6868 29.5666 38.5065 30.0141 38.307 30.4509C38.0961 30.9127 38.0374 31.433 38.1747 31.9216L39.0996 35.2121C39.491 36.6047 39.1001 38.1 38.0772 39.1229L38.0284 39.1717C36.4663 40.7338 33.9337 40.7338 32.3716 39.1717L32.1962 38.9963C31.5798 38.3799 30.6396 38.246 29.8319 38.5739C27.9904 39.3216 25.9766 39.7335 23.8667 39.7335C21.7567 39.7335 19.743 39.3216 17.9014 38.5739C17.0937 38.246 16.1535 38.3799 15.5371 38.9963L15.3618 39.1717C13.7997 40.7338 11.267 40.7338 9.70491 39.1717L9.65609 39.1229C8.63325 38.1 8.24233 36.6047 8.63374 35.2121L9.5586 31.9216C9.69596 31.433 9.63723 30.9127 9.42636 30.451C8.51041 28.4454 8 26.2157 8 23.8668C8 15.1039 15.1037 8.00012 23.8667 8.00012C25.0884 8.00012 26.2779 8.1382 27.4203 8.39961C27.6038 8.4416 27.7954 8.43523 27.9742 8.37643L32.5752 6.86326C33.8687 6.43783 35.2 7.40141 35.2 8.76315V12.3541Z" fill="url(#paint1_linear_6404_4696)" fill-opacity="0.2"/>
    <path d="M35 12.3541C35 12.6691 35.1247 12.9674 35.3356 13.1939C36.6838 14.642 37.7609 16.3456 38.4864 18.2238C38.7797 18.9834 39.4927 19.5335 40.3252 19.5335C41.1397 19.5335 41.8 20.1937 41.8 21.0082V26.4001C41.8 27.3942 40.9941 28.2001 40 28.2001H39.822C39.2892 28.2001 38.8303 28.551 38.6579 29.0435C38.5 29.4947 38.322 29.9365 38.1251 30.3679C37.8968 30.8677 37.8307 31.4366 37.9822 31.9758L38.9071 35.2662C39.2789 36.5891 38.9075 38.0098 37.9358 38.9815L37.887 39.0303C36.403 40.5143 33.997 40.5143 32.513 39.0303L32.3376 38.8549C31.6571 38.1744 30.6288 38.0345 29.7567 38.3886C27.9386 39.1268 25.9504 39.5335 23.8667 39.5335C21.7829 39.5335 19.7947 39.1268 17.9766 38.3886C17.1045 38.0345 16.0763 38.1744 15.3957 38.8549L15.2203 39.0303C13.7363 40.5143 11.3303 40.5143 9.84633 39.0303L9.79751 38.9815C8.82581 38.0098 8.45443 36.5891 8.82628 35.2662L9.75114 31.9758C9.90268 31.4366 9.83658 30.8678 9.60828 30.3679C8.704 28.3878 8.2 26.1864 8.2 23.8668C8.2 15.2143 15.2142 8.20012 23.8667 8.20012C25.0733 8.20012 26.2478 8.33649 27.3757 8.59458C27.5928 8.64425 27.8215 8.63717 28.0367 8.56642L32.6376 7.05325C33.8019 6.67036 35 7.53758 35 8.76315V12.3541Z" stroke="url(#paint2_linear_6404_4696)" stroke-opacity="0.1" stroke-width="0.4"/>
  </g>
  <g filter="url(#filter1_i_6404_4696)">
    <circle cx="31" cy="21" r="3" fill="white" fill-opacity="0.16"/>
  </g>
  <defs>
    <filter id="filter0_bi_6404_4696" x="5" y="3.7616" width="40" height="39.5817" filterUnits="userSpaceOnUse" color-interpolation-filters="sRGB">
      <feFlood flood-opacity="0" result="BackgroundImageFix"/>
      <feGaussianBlur in="BackgroundImageFix" stdDeviation="1.5"/>
      <feComposite in2="SourceAlpha" operator="in" result="effect1_backgroundBlur_6404_4696"/>
      <feBlend mode="normal" in="SourceGraphic" in2="effect1_backgroundBlur_6404_4696" result="shape"/>
      <feColorMatrix in="SourceAlpha" type="matrix" values="0 0 0 0 0 0 0 0 0 0 0 0 0 0 0 0 0 0 127 0" result="hardAlpha"/>
      <feOffset dy="0.5"/>
      <feGaussianBlur stdDeviation="1"/>
      <feComposite in2="hardAlpha" operator="arithmetic" k2="-1" k3="1"/>
      <feColorMatrix type="matrix" values="0 0 0 0 1 0 0 0 0 1 0 0 0 0 1 0 0 0 0.4 0"/>
      <feBlend mode="normal" in2="shape" result="effect2_innerShadow_6404_4696"/>
    </filter>
    <filter id="filter1_i_6404_4696" x="28" y="18" width="6" height="6.5" filterUnits="userSpaceOnUse" color-interpolation-filters="sRGB">
      <feFlood flood-opacity="0" result="BackgroundImageFix"/>
      <feBlend mode="normal" in="SourceGraphic" in2="BackgroundImageFix" result="shape"/>
      <feColorMatrix in="SourceAlpha" type="matrix" values="0 0 0 0 0 0 0 0 0 0 0 0 0 0 0 0 0 0 127 0" result="hardAlpha"/>
      <feOffset dy="0.5"/>
      <feGaussianBlur stdDeviation="0.25"/>
      <feComposite in2="hardAlpha" operator="arithmetic" k2="-1" k3="1"/>
      <feColorMatrix type="matrix" values="0 0 0 0 1 0 0 0 0 1 0 0 0 0 1 0 0 0 0.4 0"/>
      <feBlend mode="normal" in2="shape" result="effect1_innerShadow_6404_4696"/>
    </filter>
    <linearGradient id="paint0_linear_6404_4696" x1="8.58341" y1="8.8" x2="23.8446" y2="10.9196" gradientUnits="userSpaceOnUse">
      <stop stop-color="#BBA1FF"/>
      <stop offset="1" stop-color="#68E4FF"/>
    </linearGradient>
    <linearGradient id="paint1_linear_6404_4696" x1="9.41667" y1="13.2" x2="46.5554" y2="18.0716" gradientUnits="userSpaceOnUse">
      <stop stop-color="#FE82DB"/>
      <stop offset="1" stop-color="#68E4FF"/>
    </linearGradient>
    <linearGradient id="paint2_linear_6404_4696" x1="9.0625" y1="7.63637" x2="42" y2="7.63637" gradientUnits="userSpaceOnUse">
      <stop stop-color="#FD84DC"/>
      <stop offset="1" stop-color="#7FD6FA"/>
    </linearGradient>
  </defs>
</svg>
