<svg xmlns="http://www.w3.org/2000/svg" width="24" height="25" viewBox="0 0 24 25" fill="none">
  <path d="M21 6.42639C17.67 6.09639 14.32 5.92639 10.98 5.92639C9 5.92639 7.02 6.02639 5.04 6.22639L3 6.42639" stroke="#4A5568" stroke-width="1.5" stroke-linecap="round" stroke-linejoin="round"/>
  <path d="M8.5 5.41641L8.72 4.10641C8.88 3.15641 9 2.44641 10.69 2.44641H13.31C15 2.44641 15.13 3.19641 15.28 4.11641L15.5 5.41641" stroke="#4A5568" stroke-width="1.5" stroke-linecap="round" stroke-linejoin="round"/>
  <path d="M18.85 9.58643L18.2 19.6564C18.09 21.2264 18 22.4464 15.21 22.4464H8.79002C6.00002 22.4464 5.91002 21.2264 5.80002 19.6564L5.15002 9.58643" stroke="#4A5568" stroke-width="1.5" stroke-linecap="round" stroke-linejoin="round"/>
  <path d="M10.33 16.9464H13.66" stroke="#4A5568" stroke-width="1.5" stroke-linecap="round" stroke-linejoin="round"/>
  <path d="M9.5 12.9464H14.5" stroke="#4A5568" stroke-width="1.5" stroke-linecap="round" stroke-linejoin="round"/>
</svg>
