<svg xmlns="http://www.w3.org/2000/svg" width="28" height="31" viewBox="0 0 28 31" fill="none">
  <g clip-path="url(#clip0_6487_18)">
    <path d="M14 15.625C18.2609 15.625 21.7143 12.1836 21.7143 7.9375C21.7143 3.69136 18.2609 0.25 14 0.25C9.73906 0.25 6.28571 3.69136 6.28571 7.9375C6.28571 12.1836 9.73906 15.625 14 15.625ZM19.4 17.5469H18.3935C17.0556 18.1595 15.567 18.5078 14 18.5078C12.433 18.5078 10.9504 18.1595 9.60647 17.5469H8.6C4.12812 17.5469 0.5 21.1624 0.5 25.6187V28.1172C0.5 29.7087 1.79576 31 3.39286 31H24.6071C26.2042 31 27.5 29.7087 27.5 28.1172V25.6187C27.5 21.1624 23.8719 17.5469 19.4 17.5469Z" fill="white"/>
  </g>
  <defs>
    <clipPath id="clip0_6487_18">
      <rect width="27" height="30.75" fill="white" transform="translate(0.5 0.25)"/>
    </clipPath>
  </defs>
</svg>
