<svg xmlns="http://www.w3.org/2000/svg" width="198" height="198" viewBox="0 0 198 198" fill="none">
  <circle cx="99" cy="148.5" r="33" fill="url(#paint0_linear_6513_2207)"/>
  <g filter="url(#filter0_bi_6513_2207)">
    <mask id="path-3-inside-1_6513_2207" fill="white">
      <path fill-rule="evenodd" clip-rule="evenodd" d="M99 87.0833C116.213 87.0833 130.167 73.1295 130.167 55.9167C130.167 38.7038 116.213 24.75 99 24.75C81.7872 24.75 67.8334 38.7038 67.8334 55.9167C67.8334 73.1295 81.7872 87.0833 99 87.0833ZM161.333 141.625C161.333 160.876 126.704 165 99.0001 165C71.2964 165 36.6667 160.876 36.6667 141.625C36.6667 122.374 64.5743 94.875 99.0001 94.875C133.426 94.875 161.333 122.374 161.333 141.625Z"/>
    </mask>
    <path fill-rule="evenodd" clip-rule="evenodd" d="M99 87.0833C116.213 87.0833 130.167 73.1295 130.167 55.9167C130.167 38.7038 116.213 24.75 99 24.75C81.7872 24.75 67.8334 38.7038 67.8334 55.9167C67.8334 73.1295 81.7872 87.0833 99 87.0833ZM161.333 141.625C161.333 160.876 126.704 165 99.0001 165C71.2964 165 36.6667 160.876 36.6667 141.625C36.6667 122.374 64.5743 94.875 99.0001 94.875C133.426 94.875 161.333 122.374 161.333 141.625Z" fill="#F1F1F1" fill-opacity="0.1"/>
    <path fill-rule="evenodd" clip-rule="evenodd" d="M99 87.0833C116.213 87.0833 130.167 73.1295 130.167 55.9167C130.167 38.7038 116.213 24.75 99 24.75C81.7872 24.75 67.8334 38.7038 67.8334 55.9167C67.8334 73.1295 81.7872 87.0833 99 87.0833ZM161.333 141.625C161.333 160.876 126.704 165 99.0001 165C71.2964 165 36.6667 160.876 36.6667 141.625C36.6667 122.374 64.5743 94.875 99.0001 94.875C133.426 94.875 161.333 122.374 161.333 141.625Z" fill="url(#paint1_linear_6513_2207)" fill-opacity="0.2"/>
    <path d="M128.517 55.9167C128.517 72.2183 115.302 85.4333 99 85.4333V88.7333C117.124 88.7333 131.817 74.0408 131.817 55.9167H128.517ZM99 26.4C115.302 26.4 128.517 39.6151 128.517 55.9167H131.817C131.817 37.7925 117.124 23.1 99 23.1V26.4ZM69.4834 55.9167C69.4834 39.6151 82.6984 26.4 99 26.4V23.1C80.8759 23.1 66.1834 37.7925 66.1834 55.9167H69.4834ZM99 85.4333C82.6984 85.4333 69.4834 72.2183 69.4834 55.9167H66.1834C66.1834 74.0408 80.8759 88.7333 99 88.7333V85.4333ZM99.0001 166.65C112.896 166.65 128.662 165.62 141.006 162.119C147.173 160.37 152.619 157.968 156.552 154.662C160.532 151.315 162.983 147.012 162.983 141.625H159.683C159.683 145.864 157.806 149.295 154.428 152.136C151.001 155.017 146.058 157.256 140.105 158.944C128.208 162.318 112.808 163.35 99.0001 163.35V166.65ZM35.0167 141.625C35.0167 147.012 37.4685 151.315 41.4486 154.662C45.381 157.968 50.8269 160.37 56.9943 162.119C69.3377 165.62 85.104 166.65 99.0001 166.65V163.35C85.1925 163.35 69.7921 162.318 57.8947 158.944C51.9418 157.256 46.9988 155.017 43.5724 152.136C40.1937 149.295 38.3167 145.864 38.3167 141.625H35.0167ZM99.0001 93.225C81.3502 93.225 65.4058 100.27 53.8754 109.757C42.4148 119.186 35.0167 131.295 35.0167 141.625H38.3167C38.3167 132.704 44.8725 121.438 55.9721 112.305C67.002 103.23 82.2242 96.525 99.0001 96.525V93.225ZM162.983 141.625C162.983 131.295 155.585 119.186 144.125 109.757C132.594 100.27 116.65 93.225 99.0001 93.225V96.525C115.776 96.525 130.998 103.23 142.028 112.305C153.128 121.438 159.683 132.704 159.683 141.625H162.983Z" fill="url(#paint2_linear_6513_2207)" fill-opacity="0.1" mask="url(#path-3-inside-1_6513_2207)"/>
  </g>
  <defs>
    <filter id="filter0_bi_6513_2207" x="33.6667" y="21.75" width="130.667" height="146.25" filterUnits="userSpaceOnUse" color-interpolation-filters="sRGB">
      <feFlood flood-opacity="0" result="BackgroundImageFix"/>
      <feGaussianBlur in="BackgroundImageFix" stdDeviation="1.5"/>
      <feComposite in2="SourceAlpha" operator="in" result="effect1_backgroundBlur_6513_2207"/>
      <feBlend mode="normal" in="SourceGraphic" in2="effect1_backgroundBlur_6513_2207" result="shape"/>
      <feColorMatrix in="SourceAlpha" type="matrix" values="0 0 0 0 0 0 0 0 0 0 0 0 0 0 0 0 0 0 127 0" result="hardAlpha"/>
      <feOffset dy="0.5"/>
      <feGaussianBlur stdDeviation="1"/>
      <feComposite in2="hardAlpha" operator="arithmetic" k2="-1" k3="1"/>
      <feColorMatrix type="matrix" values="0 0 0 0 1 0 0 0 0 1 0 0 0 0 1 0 0 0 0.4 0"/>
      <feBlend mode="normal" in2="shape" result="effect2_innerShadow_6513_2207"/>
    </filter>
    <linearGradient id="paint0_linear_6513_2207" x1="68.75" y1="128.7" x2="140.695" y2="138.692" gradientUnits="userSpaceOnUse">
      <stop stop-color="#BBA1FF"/>
      <stop offset="1" stop-color="#68E4FF"/>
    </linearGradient>
    <linearGradient id="paint1_linear_6513_2207" x1="41.8612" y1="52.8" x2="178.3" y2="69.6443" gradientUnits="userSpaceOnUse">
      <stop stop-color="#FE82DB"/>
      <stop offset="1" stop-color="#68E4FF"/>
    </linearGradient>
    <linearGradient id="paint2_linear_6513_2207" x1="40.5626" y1="31.125" x2="161.333" y2="31.125" gradientUnits="userSpaceOnUse">
      <stop stop-color="#FD84DC"/>
      <stop offset="1" stop-color="#7FD6FA"/>
    </linearGradient>
  </defs>
</svg>
