<svg xmlns="http://www.w3.org/2000/svg" width="48" height="49" viewBox="0 0 48 49" fill="none">
  <path d="M26 44.481H10C6 44.481 4 42.481 4 38.481V22.481C4 18.481 6 16.481 10 16.481H20V38.481C20 42.481 22 44.481 26 44.481Z" stroke="#007D99" stroke-width="3" stroke-miterlimit="10" stroke-linecap="round" stroke-linejoin="round"/>
  <path d="M20.22 8.48096C20.06 9.08096 20 9.74096 20 10.481V16.481H10V12.481C10 10.281 11.8 8.48096 14 8.48096H20.22Z" stroke="#007D99" stroke-width="3" stroke-miterlimit="10" stroke-linecap="round" stroke-linejoin="round"/>
  <path d="M28 16.481V26.481" stroke="#007D99" stroke-width="3" stroke-miterlimit="10" stroke-linecap="round" stroke-linejoin="round"/>
  <path d="M36 16.481V26.481" stroke="#007D99" stroke-width="3" stroke-miterlimit="10" stroke-linecap="round" stroke-linejoin="round"/>
  <path d="M34 34.481H30C28.9 34.481 28 35.381 28 36.481V44.481H36V36.481C36 35.381 35.1 34.481 34 34.481Z" stroke="#007D99" stroke-width="3" stroke-miterlimit="10" stroke-linecap="round" stroke-linejoin="round"/>
  <path d="M12 26.481V34.481" stroke="#007D99" stroke-width="3" stroke-miterlimit="10" stroke-linecap="round" stroke-linejoin="round"/>
  <path d="M20 38.481V10.481C20 6.48096 22 4.48096 26 4.48096H38C42 4.48096 44 6.48096 44 10.481V38.481C44 42.481 42 44.481 38 44.481H26C22 44.481 20 42.481 20 38.481Z" stroke="#007D99" stroke-width="3" stroke-miterlimit="10" stroke-linecap="round" stroke-linejoin="round"/>
</svg>
