<svg xmlns="http://www.w3.org/2000/svg" width="23" height="32" viewBox="0 0 23 32" fill="none">
  <path d="M7.63677 9.47778L0.608424 13.5322C0.424848 13.6371 0.272742 13.7892 0.162596 13.978C0.0576954 14.1616 0 14.3662 0 14.5812V25.1814C0 25.4542 0.0734305 25.7217 0.209801 25.9577C0.346172 26.1937 0.545484 26.393 0.78151 26.5294L9.96557 31.8374C10.1491 31.9423 10.3589 32 10.574 32C10.789 32 10.9936 31.9423 11.1824 31.8374L18.2475 27.7567L7.63153 21.6358L7.63677 9.47778Z" fill="url(#paint0_linear_6145_559)"/>
  <path d="M14.9434 22.5222L21.9717 18.4678C22.1553 18.3629 22.3074 18.2108 22.4175 18.0219C22.5224 17.8384 22.5801 17.6286 22.5801 17.4135V6.81855C22.5801 6.54581 22.5067 6.27831 22.3703 6.03704C22.234 5.80101 22.0346 5.6017 21.7986 5.46533L12.6146 0.162596C12.431 0.0576954 12.2212 0 12.0114 0C11.7963 0 11.5918 0.0576954 11.403 0.162596L4.33789 4.24324L14.9486 10.3589L14.9434 22.5222Z" fill="url(#paint1_linear_6145_559)"/>
  <defs>
    <linearGradient id="paint0_linear_6145_559" x1="9.28" y1="4.31997" x2="9.15401" y2="35.904" gradientUnits="userSpaceOnUse">
      <stop stop-color="white" stop-opacity="0"/>
      <stop offset="1" stop-color="white"/>
    </linearGradient>
    <linearGradient id="paint1_linear_6145_559" x1="13.4261" y1="-3.86503" x2="13.4402" y2="26.88" gradientUnits="userSpaceOnUse">
      <stop stop-color="white"/>
      <stop offset="1" stop-color="white" stop-opacity="0"/>
    </linearGradient>
  </defs>
</svg>
