<svg width="48" height="49" viewBox="0 0 48 49" fill="none" xmlns="http://www.w3.org/2000/svg">
<path d="M44 18.3308V30.3308C44 35.3308 43 38.8309 40.76 41.0909L28 28.3308L43.46 12.8708C43.82 14.4508 44 16.2508 44 18.3308Z" stroke="#007D99" stroke-width="3" stroke-linecap="round" stroke-linejoin="round"/>
<path d="M43.46 12.8708L12.54 43.7908C6.51998 42.4108 4 38.2508 4 30.3308V18.3308C4 8.33081 8 4.33081 18 4.33081H30C37.92 4.33081 42.08 6.85082 43.46 12.8708Z" stroke="#007D99" stroke-width="3" stroke-linecap="round" stroke-linejoin="round"/>
<path d="M40.7601 41.0908C38.5001 43.3308 35.0001 44.3308 30.0001 44.3308H18.0001C15.9201 44.3308 14.12 44.1508 12.54 43.7908L28.0001 28.3308L40.7601 41.0908Z" stroke="#007D99" stroke-width="3" stroke-linecap="round" stroke-linejoin="round"/>
<path d="M12.48 16.2908C13.84 10.4308 22.6401 10.4308 24.0001 16.2908C24.7801 19.7308 22.62 22.6508 20.72 24.4508C19.34 25.7708 17.1601 25.7708 15.7601 24.4508C13.8601 22.6508 11.68 19.7308 12.48 16.2908Z" stroke="#007D99" stroke-width="3"/>
<path d="M18.1892 17.7307H18.2072" stroke="#007D99" stroke-width="4" stroke-linecap="round" stroke-linejoin="round"/>
</svg>
