<svg xmlns="http://www.w3.org/2000/svg" width="16" height="16" viewBox="0 0 16 16" fill="none">
  <path d="M8.01339 1.94006C5.80673 1.94006 4.01339 3.7334 4.01339 5.94006V7.86673C4.01339 8.2734 3.84006 8.8934 3.63339 9.24006L2.86673 10.5134C2.39339 11.3001 2.72006 12.1734 3.58673 12.4667C6.46006 13.4267 9.56006 13.4267 12.4334 12.4667C13.2401 12.2001 13.5934 11.2467 13.1534 10.5134L12.3867 9.24006C12.1867 8.8934 12.0134 8.2734 12.0134 7.86673V5.94006C12.0134 3.74006 10.2134 1.94006 8.01339 1.94006Z" stroke="white" stroke-miterlimit="10" stroke-linecap="round"/>
  <path d="M9.2467 2.13333C9.04003 2.07333 8.8267 2.02667 8.6067 2C7.9667 1.92 7.35336 1.96667 6.78003 2.13333C6.97336 1.64 7.45336 1.29333 8.01336 1.29333C8.57336 1.29333 9.05336 1.64 9.2467 2.13333Z" stroke="white" stroke-miterlimit="10" stroke-linecap="round" stroke-linejoin="round"/>
  <path d="M10.0134 12.7067C10.0134 13.8067 9.11343 14.7067 8.01343 14.7067C7.46676 14.7067 6.96009 14.48 6.60009 14.12C6.24009 13.76 6.01343 13.2533 6.01343 12.7067" stroke="white" stroke-miterlimit="10"/>
</svg>