<svg xmlns="http://www.w3.org/2000/svg" width="48" height="49" viewBox="0 0 48 49" fill="none">
  <path d="M19 27.9809C19 29.9209 20.5 31.4809 22.34 31.4809H26.1C27.7 31.4809 29 30.1209 29 28.4209C29 26.6009 28.2 25.9409 27.02 25.5209L21 23.4209C19.82 23.0009 19.02 22.3609 19.02 20.5209C19.02 18.8409 20.32 17.4609 21.92 17.4609H25.68C27.52 17.4609 29.02 19.0209 29.02 20.9609" stroke="#007D99" stroke-width="3" stroke-linecap="round" stroke-linejoin="round"/>
  <path d="M24 15.481V33.481" stroke="#007D99" stroke-width="3" stroke-linecap="round" stroke-linejoin="round"/>
  <path d="M44 24.481C44 35.521 35.04 44.481 24 44.481C12.96 44.481 4 35.521 4 24.481C4 13.441 12.96 4.48096 24 4.48096" stroke="#007D99" stroke-width="3" stroke-linecap="round" stroke-linejoin="round"/>
  <path d="M34 6.48096V14.481H42" stroke="#007D99" stroke-width="3" stroke-linecap="round" stroke-linejoin="round"/>
  <path d="M44 4.48096L34 14.481" stroke="#007D99" stroke-width="3" stroke-linecap="round" stroke-linejoin="round"/>
</svg>
