<svg xmlns="http://www.w3.org/2000/svg" width="200" height="200" viewBox="0 0 200 200" fill="none">
  <path d="M62.5 12.5H12.5V62.5H62.5V12.5ZM75 0V75H0V0H75ZM25 25H50V50H25V25ZM187.5 12.5H137.5V62.5H187.5V12.5ZM200 0V75H125V0H200ZM150 25H175V50H150V25ZM62.5 137.5H12.5V187.5H62.5V137.5ZM75 125V200H0V125H75ZM25 150H50V175H25V150ZM87.5 0H100V12.5H87.5V0ZM100 12.5H112.5V25H100V12.5ZM87.5 25H100V37.5H87.5V25ZM100 37.5H112.5V50H100V37.5ZM87.5 50H100V62.5H87.5V50ZM100 62.5H112.5V75H100V62.5ZM87.5 75H100V87.5H87.5V75ZM87.5 100H100V112.5H87.5V100ZM100 112.5H112.5V125H100V112.5ZM87.5 125H100V137.5H87.5V125ZM100 137.5H112.5V150H100V137.5ZM87.5 150H100V162.5H87.5V150ZM100 162.5H112.5V175H100V162.5ZM87.5 175H100V187.5H87.5V175ZM100 187.5H112.5V200H100V187.5ZM187.5 100H200V112.5H187.5V100ZM12.5 100H25V112.5H12.5V100ZM25 87.5H37.5V100H25V87.5ZM0 87.5H12.5V100H0V87.5ZM50 87.5H62.5V100H50V87.5ZM62.5 100H75V112.5H62.5V100ZM75 87.5H87.5V100H75V87.5ZM112.5 100H125V112.5H112.5V100ZM125 87.5H137.5V100H125V87.5ZM137.5 100H150V112.5H137.5V100ZM150 87.5H162.5V100H150V87.5ZM162.5 100H175V112.5H162.5V100ZM175 87.5H187.5V100H175V87.5ZM187.5 125H200V137.5H187.5V125ZM112.5 125H125V137.5H112.5V125ZM125 112.5H137.5V125H125V112.5ZM137.5 125H150V137.5H137.5V125ZM162.5 125H175V137.5H162.5V125ZM175 112.5H187.5V125H175V112.5ZM187.5 150H200V162.5H187.5V150ZM112.5 150H125V162.5H112.5V150ZM125 137.5H137.5V150H125V137.5ZM150 137.5H162.5V150H150V137.5ZM162.5 150H175V162.5H162.5V150ZM175 137.5H187.5V150H175V137.5ZM187.5 175H200V187.5H187.5V175ZM125 162.5H137.5V175H125V162.5ZM137.5 175H150V187.5H137.5V175ZM150 162.5H162.5V175H150V162.5ZM162.5 175H175V187.5H162.5V175ZM125 187.5H137.5V200H125V187.5ZM150 187.5H162.5V200H150V187.5ZM175 187.5H187.5V200H175V187.5Z" fill="#0A0A0A"/>
</svg>
