<svg width="198" height="198" viewBox="0 0 198 198" fill="none" xmlns="http://www.w3.org/2000/svg">
<circle cx="55.8047" cy="129.735" r="26.4" transform="rotate(45 55.8047 129.735)" fill="url(#paint0_linear_5011_15453)"/>
<g filter="url(#filter0_bi_5011_15453)">
<path d="M147.869 39.9813L134.001 38.0001C110.784 34.6835 87.2139 34.6835 63.9972 38.0001L50.1289 39.9813C45.0337 40.7092 41.249 45.0729 41.249 50.2199V77.8335C41.249 116.43 61.9303 152.068 95.4416 171.217C97.646 172.477 100.352 172.477 102.556 171.217C136.068 152.068 156.749 116.43 156.749 77.8335V50.2199C156.749 45.0729 152.964 40.7092 147.869 39.9813Z" fill="#F1F1F1" fill-opacity="0.2"/>
<path d="M147.869 39.9813L134.001 38.0001C110.784 34.6835 87.2139 34.6835 63.9972 38.0001L50.1289 39.9813C45.0337 40.7092 41.249 45.0729 41.249 50.2199V77.8335C41.249 116.43 61.9303 152.068 95.4416 171.217C97.646 172.477 100.352 172.477 102.556 171.217C136.068 152.068 156.749 116.43 156.749 77.8335V50.2199C156.749 45.0729 152.964 40.7092 147.869 39.9813Z" fill="url(#paint1_linear_5011_15453)" fill-opacity="0.2"/>
<path d="M133.884 38.8168L147.752 40.798C152.441 41.4679 155.924 45.4835 155.924 50.2199V77.8335C155.924 116.134 135.401 151.498 102.147 170.501C100.196 171.615 97.8016 171.615 95.8509 170.501C62.5966 151.498 42.074 116.134 42.074 77.8335V50.2199C42.074 45.4835 45.5568 41.4679 50.2456 40.798L64.1139 38.8168C87.2532 35.5112 110.745 35.5112 133.884 38.8168Z" stroke="url(#paint2_linear_5011_15453)" stroke-opacity="0.1" stroke-width="1.65"/>
</g>
<g filter="url(#filter1_i_5011_15453)">
<path d="M129.722 87.4426C132.758 84.4246 132.758 79.5315 129.722 76.5135C126.686 73.4955 121.764 73.4955 118.728 76.5135L89.9822 105.09L79.2698 94.4409C76.2339 91.423 71.3118 91.423 68.2759 94.4409C65.2401 97.4589 65.2401 102.352 68.2759 105.37L84.3271 121.327C84.3781 121.38 84.4301 121.434 84.483 121.486C85.835 122.83 87.5609 123.576 89.3278 123.723C89.3881 123.728 89.4484 123.732 89.5088 123.736C91.6538 123.866 93.8427 123.116 95.4817 121.487C95.5387 121.43 95.5945 121.373 95.6493 121.315L129.722 87.4426Z" fill="white" fill-opacity="0.26"/>
</g>
<defs>
<filter id="filter0_bi_5011_15453" x="16.499" y="10.7626" width="165" height="186.149" filterUnits="userSpaceOnUse" color-interpolation-filters="sRGB">
<feFlood flood-opacity="0" result="BackgroundImageFix"/>
<feGaussianBlur in="BackgroundImageFix" stdDeviation="12.375"/>
<feComposite in2="SourceAlpha" operator="in" result="effect1_backgroundBlur_5011_15453"/>
<feBlend mode="normal" in="SourceGraphic" in2="effect1_backgroundBlur_5011_15453" result="shape"/>
<feColorMatrix in="SourceAlpha" type="matrix" values="0 0 0 0 0 0 0 0 0 0 0 0 0 0 0 0 0 0 127 0" result="hardAlpha"/>
<feOffset dy="4.125"/>
<feGaussianBlur stdDeviation="8.25"/>
<feComposite in2="hardAlpha" operator="arithmetic" k2="-1" k3="1"/>
<feColorMatrix type="matrix" values="0 0 0 0 1 0 0 0 0 1 0 0 0 0 1 0 0 0 0.4 0"/>
<feBlend mode="normal" in2="shape" result="effect2_innerShadow_5011_15453"/>
</filter>
<filter id="filter1_i_5011_15453" x="65.999" y="74.25" width="66" height="53.625" filterUnits="userSpaceOnUse" color-interpolation-filters="sRGB">
<feFlood flood-opacity="0" result="BackgroundImageFix"/>
<feBlend mode="normal" in="SourceGraphic" in2="BackgroundImageFix" result="shape"/>
<feColorMatrix in="SourceAlpha" type="matrix" values="0 0 0 0 0 0 0 0 0 0 0 0 0 0 0 0 0 0 127 0" result="hardAlpha"/>
<feOffset dy="4.125"/>
<feGaussianBlur stdDeviation="2.0625"/>
<feComposite in2="hardAlpha" operator="arithmetic" k2="-1" k3="1"/>
<feColorMatrix type="matrix" values="0 0 0 0 1 0 0 0 0 1 0 0 0 0 1 0 0 0 0.4 0"/>
<feBlend mode="normal" in2="shape" result="effect1_innerShadow_5011_15453"/>
</filter>
<linearGradient id="paint0_linear_5011_15453" x1="31.6047" y1="113.895" x2="89.1611" y2="121.889" gradientUnits="userSpaceOnUse">
<stop stop-color="#BBA1FF"/>
<stop offset="1" stop-color="#68E4FF"/>
</linearGradient>
<linearGradient id="paint1_linear_5011_15453" x1="46.0615" y1="61.0499" x2="172.738" y2="75.539" gradientUnits="userSpaceOnUse">
<stop stop-color="#FE82DB"/>
<stop offset="1" stop-color="#68E4FF"/>
</linearGradient>
<linearGradient id="paint2_linear_5011_15453" x1="44.8584" y1="39.3749" x2="156.749" y2="39.3749" gradientUnits="userSpaceOnUse">
<stop stop-color="#FD84DC"/>
<stop offset="1" stop-color="#7FD6FA"/>
</linearGradient>
</defs>
</svg>
